# xmcd
#
# Track frame offsets: 
#        150
#        18707
#        40042
#        56387
#        75287
#        93072
#        115050
#        146220
#        165242
#        188632
#        212667
#
# Disc length: 3116 seconds
#
# Revision: 3
# Processed by: cddbd v1.4PL0 Copyright (c) Steve Scherf et al.
# Submitted via: ExactAudioCopy v0.90b4
#
DISCID=7e0c2a0b
DTITLE=Des'ree - Supernatural
DYEAR=1998
DGENRE=Pop
TTITLE0=What's Your Sign?
TTITLE1=God Only Knows
TTITLE2=Life
TTITLE3=Best Days
TTITLE4=Proud to Be a Dread
TTITLE5=I'm Kissing You
TTITLE6=Indigo Daisies
TTITLE7=Time
TTITLE8=Down By the River
TTITLE9=Darwin Star
TTITLE10=Fire
EXTD=
EXTT0=
EXTT1=
EXTT2=
EXTT3=
EXTT4=
EXTT5=
EXTT6=
EXTT7=
EXTT8=
EXTT9=
EXTT10=
PLAYORDER=
